# xmcd
#
# Track frame offsets: 
#        150
#        13364
#        26734
#        37454
#        47966
#        59563
#        70244
#        83595
#        97362
#        109630
#        118758
#        130137
#        141918
#        153499
#        167740
#        180988
#        190744
#        201911
#        213178
#        226909
#        239475
#        250222
#        265180
#        278615
#
# Disc length: 3849 seconds
#
# Revision: 0
# Processed by: cddbd v1.5.1PL2 Copyright (c) Steve Scherf et al.
# Submitted via: ExactAudioCopy v0.95b4
#
DISCID=670f0718
DTITLE=Various Artist - Little Junior Parker and friends - Mystery Train
DYEAR=2002
DGENRE=Blues
TTITLE0=Feelin' Good - JUNIOR PARKER
TTITLE1=Fussin' And Fightin' Blues - JUNIOR PARKER
TTITLE2=My Baby - JAMES COTTON
TTITLE3=Straighten Up Baby - JAMES COTTON
TTITLE4=Love My Baby - JUNIOR PARKER
TTITLE5=Mystery Train - JUNIOR PARKER
TTITLE6=Grandmother Got Grandfather Told - WALTER HORTON
TTITLE7=In The Mood - WALTER HORTON
TTITLE8=Feel So Bad - JUNIOR PARKER
TTITLE9=Sittin' At The Window - JUNIOR PARKER
TTITLE10=Harmonica Jam - COY "HOT SHOT" LOVE
TTITLE11=Wolf Call Boogie - COY "HOT SHOT" LOVE
TTITLE12=Sittin' At The Bar - JUNIOR PARKER
TTITLE13=Sittin' Drinkin' And Thinkin' - JUNIOR PARKER
TTITLE14=I'm Gonna Murder My Baby - PAT HARE
TTITLE15=Bonus Pay - PAT HARE
TTITLE16=Love My Baby (alt. take) - JUNIOR PARKER
TTITLE17=Harpin' On It - COY "HOT SHOT" LOVE
TTITLE18=Cotton Crop Blues - JAMES COTTON
TTITLE19=Hold Me In Your Arms - JAMES COTTON
TTITLE20=High - KENNETH BANKS
TTITLE21=Blue Man - KENNETH BANKS
TTITLE22=We All Gotta Go Sometime - WALTER HORTON
TTITLE23=Off The Wall - WALTER HORTON
EXTD=
EXTT0=
EXTT1=
EXTT2=
EXTT3=
EXTT4=
EXTT5=
EXTT6=
EXTT7=
EXTT8=
EXTT9=
EXTT10=
EXTT11=
EXTT12=
EXTT13=
EXTT14=
EXTT15=
EXTT16=
EXTT17=
EXTT18=
EXTT19=
EXTT20=
EXTT21=
EXTT22=
EXTT23=
PLAYORDER=
